Coordinates
version=1
nRows=15
nColumns=34
inDegrees=yes

Units are S.I. units (second, meters, Newtons, ...)
If the header above contains a line with 'inDegrees', this indicates whether rotational values are in degrees (yes) or radians (no).

endheader
time	pelvis_tilt	pelvis_list	pelvis_rotation	pelvis_tx	pelvis_ty	pelvis_tz	hip_flexion_r	hip_adduction_r	hip_rotation_r	knee_angle_r	ankle_angle_r	subtalar_angle_r	mtp_angle_r	hip_flexion_l	hip_adduction_l	hip_rotation_l	knee_angle_l	socket_flexion	socket_adduction	socket_rotation	socket_tx	socket_ty	socket_tz	pros_ankle_rx	pros_ankle_ry	pros_ankle_rz	pros_ankle_tx	pros_ankle_ty	pros_ankle_tz	foot_flex	lumbar_extension	lumbar_bending	lumbar_rotation
      0.90314000	      1.01996646	     -6.16738685	      3.79934187	      0.42403818	      1.04268099	      0.37849157	     10.88650036	      8.06256785	     -7.37733500	    -20.10098069	     10.08143640	      9.89525380	     11.43139379	     16.24529721	    -10.44035238	     -3.09130906	     67.54155154	     -0.58687132	      0.77056788	     -8.09540969	      0.00000000	     -0.01102724	      0.00000000	      0.00000000	      0.00000000	      0.00000000	      0.00000000	      0.00000000	      0.00000000	     -1.45271322	    -18.60003335	      2.59457798	      1.76496353
      0.90732000	      0.96053788	     -6.01441100	      3.75565534	      0.42922602	      1.04375646	      0.37852380	     10.42831987	      7.93711287	     -7.32567051	    -19.75921392	     10.11751312	     10.00015481	     11.44121260	     16.84860404	    -10.19448980	     -2.94432163	     67.25039189	     -0.69244837	      0.82626988	     -7.64222770	      0.00000000	     -0.01078775	      0.00000000	      0.00000000	      0.00000000	      0.00000000	      0.00000000	      0.00000000	      0.00000000	     -1.45022799	    -18.62132596	      2.43970003	      1.80805904
      0.91150000	      0.91386481	     -5.86727558	      3.74093079	      0.43443158	      1.04489651	      0.37854618	      9.90031868	      7.81993755	     -7.30115768	    -19.30194077	     10.13449520	     10.13399279	     11.45227008	     17.48048523	     -9.95634320	     -2.79590292	     66.96010134	     -0.75119196	      0.84782792	     -7.21097818	      0.00000000	     -0.01017460	      0.00000000	      0.00000000	      0.00000000	      0.00000000	      0.00000000	      0.00000000	      0.00000000	     -1.46047238	    -18.58013465	      2.18051087	      1.84859595
      0.91568000	      0.86647790	     -5.72864194	      3.71929111	      0.43967325	      1.04602378	      0.37858167	      9.37853909	      7.71113654	     -7.29365349	    -18.85625708	     10.11102258	     10.27483234	     11.46554188	     18.08849068	     -9.73021633	     -2.65616851	     66.61841825	     -0.82796679	      0.88678859	     -6.78077844	      0.00000000	     -0.00955898	      0.00000000	      0.00000000	      0.00000000	      0.00000000	      0.00000000	      0.00000000	      0.00000000	     -1.47080233	    -18.52459141	      1.94726709	      1.88318748
      0.91986000	      0.82182732	     -5.59985152	      3.69135358	      0.44501277	      1.04713787	      0.37858170	      8.82648230	      7.60245860	     -7.32083672	    -18.35286361	     10.01291090	     10.44441384	     11.49127031	     18.64192192	     -9.50682901	     -2.52478666	     66.20302504	     -0.91397989	      0.92213218	     -6.38344153	      0.00000000	     -0.00904020	      0.00000000	      0.00000000	      0.00000000	      0.00000000	      0.00000000	      0.00000000	      0.00000000	     -1.46931773	    -18.42043703	      1.70002273	      1.90686383
      0.92404000	      0.77840329	     -5.47711707	      3.64965967	      0.45026667	      1.04821911	      0.37859826	      8.30257864	      7.50261626	     -7.32995390	    -17.90258747	      9.93491496	     10.60478178	     11.53248368	     19.17371621	     -9.29250437	     -2.40042644	     65.73294582	     -0.99532527	      0.96975727	     -5.97625778	      0.00000000	     -0.00857762	      0.00000000	      0.00000000	      0.00000000	      0.00000000	      0.00000000	      0.00000000	      0.00000000	     -1.47382548	    -18.37122927	      1.51026402	      1.93458655
      0.92822000	      0.73820544	     -5.35308872	      3.60539680	      0.45541334	      1.04925489	      0.37860735	      7.79847703	      7.40096933	     -7.31549629	    -17.49056185	      9.88831927	     10.75340053	     11.57652825	     19.70360575	     -9.07548155	     -2.28474841	     65.24044677	     -1.08392889	      1.00154526	     -5.57021052	      0.00000000	     -0.00804563	      0.00000000	      0.00000000	      0.00000000	      0.00000000	      0.00000000	      0.00000000	      0.00000000	     -1.48547847	    -18.35470048	      1.32747650	      1.97235614
      0.93240000	      0.69037412	     -5.24372841	      3.55414371	      0.46044594	      1.05020814	      0.37861247	      7.34299390	      7.31488826	     -7.27816528	    -17.14895574	      9.87565568	     10.88250361	     11.60838369	     20.25376579	     -8.87604423	     -2.16975291	     64.75120856	     -1.19547015	      1.03317961	     -5.16006738	      0.00000000	     -0.00742684	      0.00000000	      0.00000000	      0.00000000	      0.00000000	      0.00000000	      0.00000000	      0.00000000	     -1.50212590	    -18.37186847	      1.18388306	      2.01864027
      0.93659000	      0.64096045	     -5.13425964	      3.49595731	      0.46574876	      1.05119498	      0.37864003	      6.80784615	      7.22651563	     -7.27848301	    -16.66501674	      9.78367588	     11.05782209	     11.65473331	     20.73090171	     -8.68614473	     -2.09118811	     64.16523042	     -1.31174709	      1.06512389	     -4.80119522	      0.00000000	     -0.00687199	      0.00000000	      0.00000000	      0.00000000	      0.00000000	      0.00000000	      0.00000000	      0.00000000	     -1.49949482	    -18.28000965	      0.96676821	      2.07328389
      0.94077000	      0.59413369	     -5.04125618	      3.42333972	      0.47087180	      1.05213198	      0.37863451	      6.32652781	      7.15283962	     -7.25184782	    -16.27492313	      9.70692834	     11.21690810	     11.70230499	     21.21221802	     -8.50450402	     -2.00490304	     63.55744064	     -1.42830117	      1.07882297	     -4.44450888	      0.00000000	     -0.00625708	      0.00000000	      0.00000000	      0.00000000	      0.00000000	      0.00000000	      0.00000000	      0.00000000	     -1.50959032	    -18.25861719	      0.81168485	      2.13682154
      0.94495000	      0.90504761	     -4.71812300	      3.25489263	      0.47636870	      1.05404142	      0.37882310	      5.34238243	      6.84810749	     -7.22229432	    -15.69304773	      9.32339247	     11.52804728	     12.49519346	     20.74852030	     -8.08337674	     -2.04803497	     61.96802484	     -1.11934473	      1.19281915	     -4.30061973	      0.00000000	     -0.00762391	      0.00000000	      0.00000000	      0.00000000	      0.00000000	      0.00000000	      0.00000000	      0.00000000	     -1.47791803	    -18.57295645	      0.36683654	      2.26318038
      0.94913000	      0.87881787	     -4.68502566	      3.09448172	      0.48121477	      1.05469586	      0.37882977	      5.01132077	      6.80231140	     -7.22667141	    -15.61444365	      9.35484155	     11.57163947	     12.50809196	     21.25930747	     -7.97566974	     -1.96832984	     61.52446951	     -1.41393134	      1.27522579	     -4.05878407	      0.00000000	     -0.00674254	      0.00000000	      0.00000000	      0.00000000	      0.00000000	      0.00000000	      0.00000000	      0.00000000	     -1.45589554	    -18.64639639	      0.34581164	      2.29213608
      0.95331000	      0.75158180	     -4.62353832	      3.11503949	      0.48637981	      1.05546344	      0.37879822	      4.53222197	      6.78394433	     -7.17495437	    -15.04681146	      9.34161662	     11.79243422	     12.54688563	     21.86560985	     -7.84008032	     -1.88116074	     60.89665433	     -1.55169290	      1.21084069	     -3.67103881	      0.00000000	     -0.00568998	      0.00000000	      0.00000000	      0.00000000	      0.00000000	      0.00000000	      0.00000000	      0.00000000	     -1.49472121	    -18.52839972	      0.13927009	      2.39327799
      0.95749000	      0.68806034	     -4.57420942	      2.96944122	      0.49181902	      1.05629012	      0.37885806	      4.02035708	      6.74183669	     -7.15014036	    -14.55626406	      9.02448506	     12.06742430	     12.64673255	     22.17139439	     -7.74281127	     -1.89205065	     60.01106687	     -1.67065115	      1.23892003	     -3.41162022	      0.00000000	     -0.00544066	      0.00000000	      0.00000000	      0.00000000	      0.00000000	      0.00000000	      0.00000000	      0.00000000	     -1.45831792	    -18.25182083	      0.02376688	      2.53404474
      0.96167000	      0.68235751	     -4.56506295	      2.81122639	      0.49652921	      1.05684250	      0.37888338	      3.71364248	      6.71872369	     -7.15918615	    -14.54947754	      9.03983585	     12.09401192	     12.65927612	     22.64782757	     -7.67107377	     -1.83148618	     59.52164701	     -2.00570257	      1.29259889	     -3.26053733	      0.00000000	     -0.00437557	      0.00000000	      0.00000000	      0.00000000	      0.00000000	      0.00000000	      0.00000000	      0.00000000	     -1.41851728	    -18.34063966	      0.01205517	      2.55896751
